<?xml version="1.0" encoding="UTF-8"?>
<!-- Generator: Adobe Illustrator 21.1.0, SVG Export Plug-In . SVG Version: 6.00 Build 0)  -->
<svg version="1.1" id="Layer_1" xmlns="http://www.w3.org/2000/svg" xmlns:xlink="http://www.w3.org/1999/xlink" x="0px" y="0px" viewBox="0 0 100 100" style="enable-background:new 0 0 100 100;" xml:space="preserve">
<style type="text/css">
	.st0{fill:#FFFFFF;}
	.st1{fill:#751010;}
	.st2{fill:#F08E93;}
	.st3{fill:#A41013;}
	.st4{fill:#E00000;}
</style>
<path class="st0" d="M13.9,79.8c0.2,1,0.9,1.6,1.9,1.6c0.8,0,1.3-0.3,1.3-1c0-0.7-0.4-1-1.7-1.4c-2.3-0.7-3.3-1.6-3.3-3.4  c0-2.3,1.8-3,3.6-3c2.1,0,3.6,0.7,3.8,2.6l-2.3,0.6c-0.1-0.9-0.8-1.3-1.5-1.3c-0.7,0-1.2,0.3-1.2,0.9c0,0.7,0.5,1,1.7,1.3  c2.1,0.7,3.2,1.4,3.2,3.3c0,2.2-1.8,3-3.9,3c-2,0-3.3-0.7-3.8-2.5L13.9,79.8z"/>
<path class="st0" d="M33.4,72.9v6.7c0,2.7-1.9,3.6-4.2,3.6S25,82.4,25,79.6v-6.7h2.3V79c0,1.4,0.4,2.3,1.8,2.3  c1.5,0,1.9-0.9,1.9-2.3v-6.1H33.4z"/>
<path class="st0" d="M44,80.7l-1.4-2.3c-0.3-0.5-0.6-1-0.8-1.5h-0.1c0.1,0.6,0.1,1.1,0.1,1.7V83h-2.3V72.9h2.4l1.9,3.4  c0.3,0.5,0.5,1,0.7,1.5h0.1c0.2-0.5,0.4-1,0.7-1.5l1.9-3.4h2.3V83h-2.3v-4.5c0-0.6,0-1.1,0.1-1.7h-0.1c-0.2,0.5-0.5,1.1-0.8,1.5  l-1.4,2.3H44z"/>
<path class="st0" d="M60.5,80.7l-1.4-2.3c-0.3-0.5-0.6-1-0.8-1.5h-0.1c0.1,0.6,0.1,1.1,0.1,1.7V83H56V72.9h2.4l1.9,3.4  c0.3,0.5,0.5,1,0.7,1.5h0.1c0.2-0.5,0.4-1,0.7-1.5l1.9-3.4h2.3V83h-2.3v-4.5c0-0.6,0-1.1,0.1-1.7h-0.1c-0.2,0.5-0.5,1.1-0.8,1.5  l-1.4,2.3H60.5z"/>
<path class="st0" d="M74.9,72.9V83h-2.3V72.9H74.9z"/>
<path class="st0" d="M82.9,83v-8.1h-2.8v-2H88v2h-2.8V83L82.9,83z"/>
<path class="st0" d="M33.2,92l-0.8-1.3c-0.2-0.3-0.3-0.6-0.5-0.9h0c0,0.3,0.1,0.7,0.1,1v2.6h-1.3v-5.8H32l1.1,2  c0.2,0.3,0.3,0.6,0.4,0.8h0c0.1-0.3,0.3-0.6,0.4-0.8l1.1-2h1.3v5.8h-1.3v-2.6c0-0.3,0-0.7,0-1h0c-0.1,0.3-0.3,0.6-0.4,0.9L33.9,92  L33.2,92z"/>
<path class="st0" d="M44.8,93.3h-3.9v-5.8h3.9v1.2h-2.5v1.2h2.2v1.1h-2.2v1.2h2.5V93.3z"/>
<path class="st0" d="M49,93.3v-5.8h2.1c1.6,0,2.8,0.8,2.8,2.8c0,2.1-1.2,3-2.9,3L49,93.3z M50.9,92.2c1,0,1.6-0.4,1.6-1.8  c0-1.4-0.6-1.8-1.6-1.8h-0.7v3.5H50.9z"/>
<path class="st0" d="M59.4,87.5v5.8h-1.3v-5.8H59.4z"/>
<path class="st0" d="M67.2,92.1H65l-0.4,1.2h-1.4l2.1-5.8H67l2.1,5.8h-1.4L67.2,92.1z M65.4,91h1.4l-0.2-0.6  c-0.2-0.5-0.3-1.1-0.5-1.7h0c-0.1,0.6-0.3,1.1-0.5,1.6L65.4,91z"/>
<polygon class="st1" points="17.2,62.7 49.9,62.7 49.9,6.2 "/>
<polygon class="st2" points="49.9,6.2 71.3,62.7 82.5,62.7 "/>
<polygon class="st3" points="44.2,62.7 49.9,62.7 49.9,6.2 "/>
<polygon class="st4" points="49.9,6.2 49.9,62.7 71.3,62.7 "/>
</svg>